<?xml version="1.0" encoding="UTF-8" standalone="no"?>
<!-- Uploaded to: SVG Repo, www.svgrepo.com, Generator: SVG Repo Mixer Tools -->

<svg
   fill="#000000"
   width="3840"
   height="2160"
   viewBox="0 0 153.6 86.4"
   id="icon"
   version="1.1"
   sodipodi:docname="no-image.svg"
   inkscape:version="1.3.2 (091e20e, 2023-11-25, custom)"
   inkscape:export-filename="no-image.png"
   inkscape:export-xdpi="96"
   inkscape:export-ydpi="96"
   xmlns:inkscape="http://www.inkscape.org/namespaces/inkscape"
   xmlns:sodipodi="http://sodipodi.sourceforge.net/DTD/sodipodi-0.dtd"
   xmlns="http://www.w3.org/2000/svg"
   xmlns:svg="http://www.w3.org/2000/svg"
   xmlns:rdf="http://www.w3.org/1999/02/22-rdf-syntax-ns#"
   xmlns:cc="http://creativecommons.org/ns#"
   xmlns:dc="http://purl.org/dc/elements/1.1/">
  <sodipodi:namedview
     id="namedview2"
     pagecolor="#000000"
     bordercolor="#000000"
     borderopacity="0.25"
     inkscape:showpageshadow="2"
     inkscape:pageopacity="0.0"
     inkscape:pagecheckerboard="0"
     inkscape:deskcolor="#d1d1d1"
     inkscape:zoom="0.17964932"
     inkscape:cx="1489.0121"
     inkscape:cy="1372.1177"
     inkscape:window-width="1920"
     inkscape:window-height="1009"
     inkscape:window-x="-8"
     inkscape:window-y="-8"
     inkscape:window-maximized="1"
     inkscape:current-layer="icon"
     inkscape:export-bgcolor="#000000ff" />
  <defs
     id="defs1">
    <style
       id="style1">.cls-1{fill:none;}</style>
  </defs>
  <title
     id="title1">no-image</title>
  <g
     id="g2"
     transform="matrix(2,0,0,2,44.8,11.2)">
    <path
       d="M 30,3.4141 28.5859,2 2,28.5859 3.4141,30 l 2,-2 H 26 a 2.0027,2.0027 0 0 0 2,-2 V 5.4141 Z M 26,26 H 7.4141 l 7.7929,-7.793 2.3788,2.3787 a 2,2 0 0 0 2.8284,0 L 22,19 l 4,3.9973 z m 0,-5.8318 -2.5858,-2.5859 a 2,2 0 0 0 -2.8284,0 L 19,19.1682 16.623,16.7911 26,7.4141 Z"
       id="path1"
       style="fill:#ffffff" />
    <path
       d="m 6,22 v -3 l 5,-4.9966 1.3733,1.3733 1.4159,-1.416 -1.375,-1.375 a 2,2 0 0 0 -2.8284,0 L 6,16.1716 V 6 H 22 V 4 H 6 A 2.002,2.002 0 0 0 4,6 v 16 z"
       id="path2"
       style="fill:#ffffff" />
    <rect
       id="_Transparent_Rectangle_"
       data-name="&lt;Transparent Rectangle&gt;"
       class="cls-1"
       width="32"
       height="32"
       x="0"
       y="0" />
  </g>
  <metadata
     id="metadata2">
    <rdf:RDF>
      <cc:Work
         rdf:about="">
        <dc:title>no-image</dc:title>
      </cc:Work>
    </rdf:RDF>
  </metadata>
</svg>
